#!OML:ASF C:\Vicon Data\Big\jianyuan-13\jianyuan\Session 1\Capture.male.ASF
:FULLY-SPECIFIED
:DEGREES
139
root -9.201347 17.562669 -14.565072 10.199906 -8.817942 0.975279
lowerback -13.531140 2.415949 -4.430863 
upperback 2.067543 4.101821 -1.271285 
thorax 9.631858 1.762847 2.006632 
lowerneck -4.458815 -3.231923 2.382174 
upperneck 24.815764 -4.628153 -0.675361 
head 8.344699 -2.019479 -1.013507 
rclavicle 0.000000 0.000000 
rhumerus -27.883943 -4.027400 -91.829086 
rradius 40.919906 
rwrist 22.679793 
rhand -16.969221 -16.803038 
rfingers 0.000000 
rthumb 9.265066 -46.579464 
lclavicle 0.000000 0.000000 
lhumerus -75.512156 42.599226 21.852723 
lradius 21.274896 
lwrist -78.753353 
lhand -21.507826 1.780277 
lfingers 0.000000 
lthumb 4.884030 31.703957 
rfemur -5.364159 -4.724449 24.108634 
rtibia 39.140382 
rfoot -8.524170 -2.034117 
rtoes -30.922091 
lfemur -25.597946 -3.793590 -23.268654 
ltibia 14.676403 
lfoot -1.477494 0.708789 
ltoes -25.606184 
140
root -9.200729 17.563800 -14.457405 10.178780 -8.646578 1.052982
lowerback -13.544945 2.399239 -4.443467 
upperback 1.978955 4.083766 -1.328645 
thorax 9.546918 1.758998 1.946619 
lowerneck -4.364846 -3.282921 2.482452 
upperneck 24.922548 -4.699003 -0.724215 
head 8.359115 -2.046935 -1.051963 
rclavicle 0.000000 0.000000 
rhumerus -28.188012 -4.473010 -91.677320 
rradius 40.612156 
rwrist 22.979015 
rhand -16.965239 -16.812077 
rfingers 0.000000 
rthumb 9.268876 -46.588287 
lclavicle 0.000000 0.000000 
lhumerus -74.861141 42.539465 22.626057 
lradius 21.210133 
lwrist -78.323131 
lhand -21.436816 1.791442 
lfingers 0.000000 
lthumb 4.952545 31.713525 
rfemur -6.079772 -5.419092 23.700935 
rtibia 40.839470 
rfoot -7.260051 -1.427208 
rtoes -31.317594 
lfemur -25.328751 -3.731330 -23.542731 
ltibia 14.875277 
lfoot -1.332721 0.377737 
ltoes -24.691515 
141
root -9.197310 17.566013 -14.348333 10.223118 -8.505809 1.188556
lowerback -13.675994 2.292606 -4.545964 
upperback 1.893477 3.960582 -1.305614 
thorax 9.527671 1.694880 2.007798 
lowerneck -4.236529 -3.250263 2.324449 
upperneck 24.986923 -4.625125 -0.745470 
head 8.361844 -2.027912 -1.024717 
rclavicle 0.000000 0.000000 
rhumerus -28.496169 -4.425289 -91.450061 
rradius 40.239775 
rwrist 23.198442 
rhand -16.798197 -16.603198 
rfingers 0.000000 
rthumb 9.430031 -46.372290 
lclavicle 0.000000 0.000000 
lhumerus -74.891602 42.716243 22.854560 
lradius 21.205048 
lwrist -78.708304 
lhand -21.544182 1.844686 
lfingers 0.000000 
lthumb 4.848882 31.769177 
rfemur -6.955350 -6.174766 23.153536 
rtibia 42.701196 
rfoot -5.964948 -0.629801 
rtoes -31.430184 
lfemur -25.122894 -3.618910 -23.903832 
ltibia 15.061145 
lfoot -1.142127 0.057588 
ltoes -24.035598 
142
root -9.195248 17.570088 -14.238523 10.189364 -8.426613 1.321121
lowerback -13.684074 2.296582 -4.646560 
upperback 1.829701 3.987411 -1.379820 
thorax 9.459707 1.707503 1.988622 
lowerneck -4.265310 -3.304135 2.573015 
upperneck 25.138045 -4.690836 -0.936798 
head 8.406043 -2.051878 -1.138761 
rclavicle 0.000000 0.000000 
rhumerus -28.720717 -4.780189 -91.282512 
rradius 39.832537 
rwrist 23.415118 
rhand -16.873843 -16.644476 
rfingers 0.000000 
rthumb 9.357039 -46.416751 
lclavicle 0.000000 0.000000 
lhumerus -74.255264 42.762398 23.594818 
lradius 21.209789 
lwrist -78.642957 
lhand -21.515755 1.886710 
lfingers 0.000000 
lthumb 4.876335 31.810582 
rfemur -7.897497 -6.769905 22.636219 
rtibia 44.672634 
rfoot -4.644758 -0.043762 
rtoes -32.101872 
lfemur -24.824029 -3.660366 -24.186801 
ltibia 15.241466 
lfoot -1.097633 -0.016431 
ltoes -22.903829 
143
root -9.189033 17.570300 -14.128423 10.215843 -8.166220 1.469890
lowerback -13.723402 2.169472 -4.722284 
upperback 1.735376 3.828782 -1.380452 
thorax 9.383865 1.630818 1.997018 
lowerneck -4.146603 -3.275830 2.515249 
upperneck 25.190713 -4.634752 -0.963228 
head 8.403898 -2.032822 -1.131580 
rclavicle 0.000000 0.000000 
rhumerus -29.041266 -4.954778 -91.060484 
rradius 39.467211 
rwrist 23.898351 
rhand -16.777629 -16.708484 
rfingers 0.000000 
rthumb 9.449922 -46.476585 
lclavicle 0.000000 0.000000 
lhumerus -73.834660 42.849813 24.415297 
lradius 21.267467 
lwrist -78.250215 
lhand -21.512540 1.977138 
lfingers 0.000000 
lthumb 4.879499 31.900965 
rfemur -8.966436 -7.405007 22.101683 
rtibia 46.790800 
rfoot -3.393461 0.548442 
rtoes -32.909261 
lfemur -24.571275 -3.754633 -24.509763 
ltibia 15.349043 
lfoot -1.072041 -0.273227 
ltoes -22.341987 
144
root -9.178469 17.568189 -14.015546 10.151848 -7.883162 1.792229
lowerback -13.635130 2.053592 -4.927185 
upperback 1.651365 3.705979 -1.453696 
thorax 9.241504 1.569004 2.001271 
lowerneck -4.075472 -3.270296 2.564138 
upperneck 25.273550 -4.620348 -1.013370 
head 8.416904 -2.025161 -1.155206 
rclavicle 0.000000 0.000000 
rhumerus -29.337650 -5.202932 -90.771969 
rradius 38.974703 
rwrist 24.336652 
rhand -16.760765 -16.439795 
rfingers 0.000000 
rthumb 9.466200 -46.207148 
lclavicle 0.000000 0.000000 
lhumerus -73.371715 43.039980 25.143525 
lradius 21.307438 
lwrist -77.786860 
lhand -21.400128 1.864401 
lfingers 0.000000 
lthumb 4.987962 31.785692 
rfemur -10.130790 -8.179286 21.350677 
rtibia 49.070994 
rfoot -1.989668 1.265920 
rtoes -34.710108 
lfemur -24.208508 -3.900766 -25.034561 
ltibia 15.440999 
lfoot -1.181102 -0.538399 
ltoes -21.696102 
145
root -9.171216 17.564380 -13.899646 10.171938 -7.762643 1.970874
lowerback -13.648503 2.008940 -4.977595 
upperback 1.575094 3.657375 -1.511317 
thorax 9.169703 1.548006 1.956547 
lowerneck -4.028268 -3.270734 2.583519 
upperneck 25.330173 -4.610311 -1.065270 
head 8.425826 -2.022766 -1.174904 
rclavicle 0.000000 0.000000 
rhumerus -29.593022 -5.646405 -90.498260 
rradius 38.510286 
rwrist 24.784449 
rhand -16.768823 -16.537654 
rfingers 0.000000 
rthumb 9.458436 -46.305440 
lclavicle 0.000000 0.000000 
lhumerus -72.646927 43.209342 26.211244 
lradius 21.348532 
lwrist -77.320549 
lhand -21.597537 1.957631 
lfingers 0.000000 
lthumb 4.797422 31.883289 
rfemur -11.492589 -8.531621 20.773001 
rtibia 51.465998 
rfoot -0.568209 1.884777 
rtoes -36.260992 
lfemur -23.940428 -3.908486 -25.400744 
ltibia 15.618095 
lfoot -1.299598 -0.836415 
ltoes -21.272530 
146
root -9.165614 17.558349 -13.784270 10.075759 -7.685150 2.322706
lowerback -13.571275 1.915807 -5.329791 
upperback 1.582996 3.586865 -1.506229 
thorax 9.118281 1.497496 2.141043 
lowerneck -4.097475 -3.265795 2.493408 
upperneck 25.381638 -4.556589 -1.229388 
head 8.454124 -2.020318 -1.212689 
rclavicle 0.000000 0.000000 
rhumerus -29.774890 -5.875305 -90.084394 
rradius 38.029146 
rwrist 25.162602 
rhand -16.870329 -16.311844 
rfingers 0.000000 
rthumb 9.360472 -46.084034 
lclavicle 0.000000 0.000000 
lhumerus -72.308335 43.763271 26.847303 
lradius 21.363351 
lwrist -77.159671 
lhand -21.632874 1.884505 
lfingers 0.000000 
lthumb 4.763267 31.810939 
rfemur -12.897165 -8.934869 19.967979 
rtibia 53.950068 
rfoot 0.623236 2.724256 
rtoes -36.802199 
lfemur -23.614052 -3.960328 -25.924062 
ltibia 15.932178 
lfoot -1.623337 -1.185859 
ltoes -20.555001 
147
root -9.160210 17.552206 -13.713587 10.023488 -7.688850 2.533523
lowerback -13.469341 1.908039 -5.463238 
upperback 1.542570 3.595636 -1.576598 
thorax 9.011918 1.501276 2.136265 
lowerneck -4.049135 -3.269643 2.597771 
upperneck 25.402902 -4.549981 -1.331198 
head 8.447145 -2.017115 -1.263047 
rclavicle 0.000000 0.000000 
rhumerus -29.968606 -5.940373 -89.879157 
rradius 37.811621 
rwrist 25.127757 
rhand -16.858634 -16.398570 
rfingers 0.000000 
rthumb 9.371783 -46.170223 
lclavicle 0.000000 0.000000 
lhumerus -71.647159 43.818101 27.782025 
lradius 21.393893 
lwrist -76.681867 
lhand -21.803607 2.011829 
lfingers 0.000000 
lthumb 4.598432 31.941931 
rfemur -13.807009 -9.040286 19.486451 
rtibia 55.511103 
rfoot 1.208223 3.122842 
rtoes -35.840384 
lfemur -23.436189 -3.999120 -26.232856 
ltibia 16.168025 
lfoot -1.927014 -1.341386 
ltoes -20.306591 
148
root -9.159308 17.550392 -13.680582 9.989437 -7.659035 2.595841
lowerback -13.429055 1.885131 -5.501632 
upperback 1.545329 3.569722 -1.588088 
thorax 8.992267 1.487876 2.138402 
lowerneck -4.028461 -3.261288 2.551274 
upperneck 25.384055 -4.543271 -1.281514 
head 8.439626 -2.013870 -1.237276 
rclavicle 0.000000 0.000000 
rhumerus -29.989332 -6.151407 -89.761214 
rradius 37.605205 
rwrist 25.454577 
rhand -16.779682 -16.417288 
rfingers 0.000000 
rthumb 9.447918 -46.185509 
lclavicle 0.000000 0.000000 
lhumerus -71.641913 44.026460 27.796857 
lradius 21.364423 
lwrist -76.932844 
lhand -21.969219 2.071157 
lfingers 0.000000 
lthumb 4.438519 32.004627 
rfemur -14.203519 -9.033738 19.316046 
rtibia 56.213449 
rfoot 1.363239 3.263408 
rtoes -35.781898 
lfemur -23.357949 -3.871948 -26.369258 
ltibia 16.309803 
lfoot -2.014192 -1.565866 
ltoes -20.091755 
149
root -9.159062 17.547504 -13.646840 9.963462 -7.672159 2.676959
lowerback -13.398425 1.870660 -5.573853 
upperback 1.544792 3.560103 -1.588715 
thorax 8.970787 1.480398 2.174711 
lowerneck -4.010456 -3.247246 2.471117 
upperneck 25.363283 -4.520128 -1.249567 
head 8.432457 -2.007614 -1.210466 
rclavicle 0.000000 0.000000 
rhumerus -30.039999 -6.307954 -89.639024 
rradius 37.437399 
rwrist 25.657110 
rhand -16.802484 -16.434129 
rfingers 0.000000 
rthumb 9.425915 -46.203384 
lclavicle 0.000000 0.000000 
lhumerus -71.492339 44.198368 28.044293 
lradius 21.367590 
lwrist -76.813107 
lhand -21.980525 2.023135 
lfingers 0.000000 
lthumb 4.427585 31.956838 
rfemur -14.661471 -9.047239 19.120691 
rtibia 56.951225 
rfoot 1.442223 3.323529 
rtoes -36.050511 
lfemur -23.290047 -3.790325 -26.507830 
ltibia 16.460202 
lfoot -2.137758 -1.727676 
ltoes -19.835837 
150
root -9.158459 17.543726 -13.612043 9.931679 -7.699100 2.773283
lowerback -13.362837 1.858425 -5.662351 
upperback 1.546152 3.555733 -1.588508 
thorax 8.947217 1.474660 2.221874 
lowerneck -3.998416 -3.231257 2.400968 
upperneck 25.340100 -4.490617 -1.239416 
head 8.424772 -1.999525 -1.192210 
rclavicle 0.000000 0.000000 
rhumerus -30.100937 -6.450319 -89.515243 
rradius 37.281958 
rwrist 25.791864 
rhand -16.871175 -16.436728 
rfingers 0.000000 
rthumb 9.359645 -46.208998 
lclavicle 0.000000 0.000000 
lhumerus -71.267633 44.358739 28.398919 
lradius 21.374877 
lwrist -76.570494 
lhand -21.967458 1.974920 
lfingers 0.000000 
lthumb 4.440181 31.908346 
rfemur -15.139672 -9.079933 18.899184 
rtibia 57.718400 
rfoot 1.427392 3.336406 
rtoes -36.659423 
lfemur -23.215207 -3.719529 -26.661166 
ltibia 16.615483 
lfoot -2.269213 -1.878511 
ltoes -19.647339 
